<?xml version="1.0" encoding="UTF-8" standalone="no"?>
<!DOCTYPE svg PUBLIC "-//W3C//DTD SVG 1.1//EN" "http://www.w3.org/Graphics/SVG/1.1/DTD/svg11.dtd">
<svg width="100%" height="100%" viewBox="0 0 20 16" version="1.1" xmlns="http://www.w3.org/2000/svg" xmlns:xlink="http://www.w3.org/1999/xlink" xml:space="preserve" xmlns:serif="http://www.serif.com/" style="fill-rule:evenodd;clip-rule:evenodd;stroke-linejoin:round;stroke-miterlimit:2;">
    <g transform="matrix(1,0,0,1,-0.493285,-2.05455)">
        <g transform="matrix(1.31673,0,0,1.31673,-4.28033,-3.40043)">
            <g transform="matrix(0.301125,0,0,0.301125,13.6323,15.7587)">
                <path d="M0,-37.072C-3.512,-37.072 -6.8,-35.713 -9.256,-33.292C-11.712,-35.713 -15,-37.072 -18.512,-37.072C-18.936,-37.072 -19.363,-37.052 -19.782,-37.012C-26.234,-36.406 -31.363,-31.06 -31.71,-24.577C-31.913,-20.809 -30.472,-17.109 -27.758,-14.425L-27.739,-14.406L-27.719,-14.388L-13.65,-1.441C-12.639,-0.511 -11.326,0 -9.952,0C-8.676,0 -7.437,-0.446 -6.466,-1.257C-6.362,-1.342 5.237,-10.82 9.072,-14.26C11.909,-16.806 13.413,-20.566 13.198,-24.577C12.851,-31.06 7.722,-36.406 1.269,-37.012C0.85,-37.052 0.423,-37.072 0,-37.072M0,-35.569C0.372,-35.569 0.748,-35.552 1.128,-35.516C6.846,-34.979 11.39,-30.242 11.697,-24.497C11.887,-20.943 10.565,-17.619 8.069,-15.379C4.337,-12.031 -6.95,-2.802 -7.429,-2.411C-8.126,-1.829 -9.027,-1.502 -9.952,-1.502C-10.948,-1.502 -11.9,-1.873 -12.633,-2.547L-26.702,-15.494C-29.125,-17.891 -30.389,-21.157 -30.21,-24.496C-29.902,-30.241 -25.358,-34.979 -19.641,-35.516C-19.261,-35.552 -18.884,-35.569 -18.512,-35.569C-14.856,-35.569 -11.494,-33.919 -9.256,-31.033C-7.019,-33.918 -3.655,-35.569 0,-35.569" style="fill:white;fill-rule:nonzero;"/>
            </g>
            <g transform="matrix(0.301125,0,0,0.301125,10.6354,4.5953)">
                <path d="M0,37.073C-1.374,37.073 -2.687,36.561 -3.698,35.632L-17.767,22.684C-20.52,19.964 -21.96,16.263 -21.758,12.496C-21.411,6.012 -16.282,0.666 -9.829,0.06C-9.402,0.02 -8.979,0 -8.56,0C-5.047,0 -1.759,1.36 0.696,3.78C3.152,1.359 6.44,0 9.952,0C10.371,0 10.794,0.02 11.221,0.06C17.674,0.666 22.803,6.012 23.15,12.495C23.364,16.506 21.861,20.266 19.025,22.812C15.208,26.236 3.59,35.731 3.474,35.825C2.514,36.626 1.276,37.073 0,37.073" style="fill:rgb(255,116,37);fill-rule:nonzero;"/>
            </g>
            <g transform="matrix(0.301125,0,0,0.301125,13.6323,16.2113)">
                <path d="M0,-40.078C-3.429,-40.078 -6.667,-38.914 -9.256,-36.811C-11.845,-38.914 -15.083,-40.078 -18.512,-40.078C-18.982,-40.078 -19.457,-40.056 -19.923,-40.012C-27.111,-39.336 -32.824,-33.381 -33.211,-26.161C-33.436,-21.964 -31.834,-17.845 -28.815,-14.86L-28.777,-14.822L-28.737,-14.785L-14.668,-1.838C-13.378,-0.652 -11.704,0 -9.952,0C-8.325,0 -6.744,-0.57 -5.503,-1.606C-5.412,-1.681 6.215,-11.182 10.076,-14.645C13.253,-17.496 14.938,-21.693 14.699,-26.16C14.312,-33.381 8.599,-39.336 1.409,-40.012C0.944,-40.056 0.47,-40.078 0,-40.078M0,-37.072C0.372,-37.072 0.748,-37.055 1.128,-37.019C6.846,-36.482 11.39,-31.745 11.697,-26C11.887,-22.446 10.565,-19.122 8.069,-16.882C4.337,-13.535 -6.95,-4.305 -7.429,-3.914C-8.126,-3.332 -9.027,-3.005 -9.952,-3.005C-10.948,-3.005 -11.9,-3.376 -12.633,-4.05L-26.702,-16.997C-29.125,-19.394 -30.389,-22.66 -30.21,-25.999C-29.902,-31.745 -25.358,-36.482 -19.641,-37.019C-19.261,-37.055 -18.884,-37.072 -18.512,-37.072C-14.856,-37.072 -11.494,-35.422 -9.256,-32.536C-7.019,-35.421 -3.655,-37.072 0,-37.072" style="fill:rgb(83,71,65);fill-rule:nonzero;"/>
            </g>
            <g transform="matrix(0.301125,0,0,0.301125,6.53955,10.2245)">
                <path d="M0,-0.536C-1.345,-1.869 -2.122,-3.854 -2.014,-5.869C-1.829,-9.332 0.907,-12.187 4.35,-12.511C4.578,-12.532 4.812,-12.542 5.042,-12.542C7.274,-12.542 9.258,-11.571 10.625,-9.807L11.356,-8.864C12.847,-6.942 15.75,-6.942 17.241,-8.864L17.972,-9.807C19.339,-11.571 21.322,-12.542 23.554,-12.542C23.784,-12.542 24.018,-12.532 24.251,-12.511C27.689,-12.187 30.425,-9.332 30.61,-5.869C30.725,-3.728 29.962,-1.756 28.519,-0.46C25.216,2.502 15.777,10.246 13.627,12.006L0,-0.536Z" style="fill:rgb(255,29,37);fill-rule:nonzero;"/>
            </g>
        </g>
    </g>
</svg>
