<?xml version="1.0" encoding="UTF-8" standalone="no"?>
<!DOCTYPE svg PUBLIC "-//W3C//DTD SVG 1.1//EN" "http://www.w3.org/Graphics/SVG/1.1/DTD/svg11.dtd">
<svg width="100%" height="100%" viewBox="0 0 18 15" version="1.1" xmlns="http://www.w3.org/2000/svg" xmlns:xlink="http://www.w3.org/1999/xlink" xml:space="preserve" xmlns:serif="http://www.serif.com/" style="fill-rule:evenodd;clip-rule:evenodd;stroke-linejoin:round;stroke-miterlimit:2;">
    <g transform="matrix(1,0,0,1,-1.08903,-2.05495)">
        <g transform="matrix(0.396499,0,0,0.396499,13.6695,16.754)">
            <path d="M0,-37.072C-3.512,-37.072 -6.8,-35.713 -9.256,-33.293C-11.712,-35.713 -15,-37.072 -18.513,-37.072C-18.935,-37.072 -19.362,-37.052 -19.782,-37.012C-26.235,-36.406 -31.363,-31.06 -31.71,-24.577C-31.913,-20.809 -30.472,-17.109 -27.758,-14.426L-27.739,-14.406L-27.719,-14.388L-13.65,-1.441C-12.64,-0.511 -11.326,0 -9.953,0C-8.676,0 -7.437,-0.447 -6.466,-1.257C-6.362,-1.342 5.269,-10.848 9.072,-14.261C11.909,-16.806 13.412,-20.567 13.198,-24.577C12.851,-31.06 7.722,-36.406 1.269,-37.012C0.849,-37.052 0.422,-37.072 0,-37.072M0,-35.57C0.372,-35.57 0.748,-35.552 1.128,-35.516C6.846,-34.979 11.39,-30.242 11.697,-24.497C11.887,-20.943 10.565,-17.62 8.069,-15.38C4.337,-12.032 -6.95,-2.802 -7.429,-2.411C-8.126,-1.829 -9.027,-1.503 -9.953,-1.503C-10.948,-1.503 -11.9,-1.873 -12.633,-2.547L-26.702,-15.494C-29.126,-17.891 -30.389,-21.157 -30.21,-24.497C-29.902,-30.241 -25.358,-34.979 -19.641,-35.516C-19.261,-35.552 -18.885,-35.57 -18.513,-35.57C-14.857,-35.57 -11.494,-33.919 -9.256,-31.034C-7.019,-33.918 -3.655,-35.57 0,-35.57" style="fill:white;fill-rule:nonzero;"/>
        </g>
    </g>
</svg>
