<?xml version="1.0" encoding="UTF-8" standalone="no" ?>
<!DOCTYPE svg PUBLIC "-//W3C//DTD SVG 1.1//EN"
  "http://www.w3.org/Graphics/SVG/1.1/DTD/svg11.dtd">
<svg
  width="100%"
  height="100%"
  viewBox="0 0 1104 191"
  version="1.1"
  xmlns="http://www.w3.org/2000/svg"
  xmlns:xlink="http://www.w3.org/1999/xlink"
  xml:space="preserve"
  xmlns:serif="http://www.serif.com/"
  style="fill-rule:evenodd;clip-rule:evenodd;stroke-linejoin:round;stroke-miterlimit:2;"
>
    <g transform="matrix(1,0,0,1,-57.4736,-79.5248)">
        <g transform="matrix(1,0,0,1,-350.526,-665.777)">
            <g opacity="0.5">
                <g transform="matrix(1,0,0,1,1490,813.746)">
                    <path
            d="M0,120L-92.286,120L-92.286,0L0,0C11.046,0 20,8.954 20,20L20,100C20,111.046 11.046,120 0,120"
            style="fill:rgb(115,99,87);fill-rule:nonzero;"
          />
                </g>
            </g>
        </g>
        <g transform="matrix(1,0,0,1,-350.526,-665.777)">
            <g opacity="0.5">
                <g transform="matrix(1,0,0,1,430,933.746)">
                    <path
            d="M0,-120L92.286,-120L92.286,0L0,0C-11.046,0 -20,-8.954 -20,-20L-20,-100C-20,-111.046 -11.046,-120 0,-120"
            style="fill:rgb(115,99,87);fill-rule:nonzero;"
          />
                </g>
            </g>
        </g>
        <g transform="matrix(1,0,0,1,-350.526,-665.777)">
            <g opacity="0.5">
                <g transform="matrix(1,0,0,1,1400,867.302)">
                    <path
            d="M0,-53.556L-331.484,-53.556C-353.193,-93.15 -395.252,-120 -443.593,-120C-491.934,-120 -533.993,-93.15 -555.702,-53.556L-880,-53.556C-913.137,-53.556 -940,-26.693 -940,6.444C-940,39.581 -913.137,66.444 -880,66.444L0,66.444C33.137,66.444 60,39.581 60,6.444C60,-26.693 33.137,-53.556 0,-53.556"
            style="fill:white;fill-rule:nonzero;"
          />
                </g>
            </g>
        </g>
        <g transform="matrix(1,0,0,1,605.881,269.969)">
            <path
        d="M0,-190.444C-47.014,-190.444 -90.311,-165.014 -113.287,-124L-526.407,-124C-538.538,-124 -548.407,-114.131 -548.407,-102L-548.407,-22C-548.407,-9.869 -538.538,0 -526.407,0L533.593,0C545.724,0 555.593,-9.869 555.593,-22L555.593,-102C555.593,-114.131 545.724,-124 533.593,-124L113.287,-124C90.312,-165.014 47.014,-190.444 0,-190.444M0,-188.444C48.341,-188.444 90.4,-161.593 112.109,-122L533.593,-122C544.639,-122 553.593,-113.046 553.593,-102L553.593,-22C553.593,-10.954 544.639,-2 533.593,-2L-526.407,-2C-537.453,-2 -546.407,-10.954 -546.407,-22L-546.407,-102C-546.407,-113.046 -537.453,-122 -526.407,-122L-112.108,-122C-90.399,-161.594 -48.34,-188.444 0,-188.444"
        style="fill:rgb(83,71,65);fill-rule:nonzero;"
      />
        </g>
    </g>
</svg>
