<?xml version="1.0" encoding="UTF-8" standalone="no"?>
<!DOCTYPE svg PUBLIC "-//W3C//DTD SVG 1.1//EN" "http://www.w3.org/Graphics/SVG/1.1/DTD/svg11.dtd">
<svg width="100%" height="100%" viewBox="0 0 1309 287" version="1.1" xmlns="http://www.w3.org/2000/svg" xmlns:xlink="http://www.w3.org/1999/xlink" xml:space="preserve" xmlns:serif="http://www.serif.com/" style="fill-rule:evenodd;clip-rule:evenodd;stroke-linejoin:round;stroke-miterlimit:2;">
    <g transform="matrix(1,0,0,1,-286.178,-679.271)">
        <g transform="matrix(1,0,0,1,319.24,-1233.64)">
            <g opacity="0.5">
                <g transform="matrix(1,0,0,1,1106.75,2096.26)">
                    <path d="M0,-80.486L-333.599,-80.486C-366.223,-139.993 -429.445,-180.34 -502.096,-180.34C-574.747,-180.34 -637.97,-139.993 -670.594,-80.486L-971.49,-80.486C-1021.29,-80.486 -1061.66,-40.116 -1061.66,9.684C-1061.66,59.484 -1021.29,99.854 -971.49,99.854L0,99.854C49.799,99.854 90.17,59.484 90.17,9.684C90.17,-40.116 49.799,-80.486 0,-80.486" style="fill:white;fill-rule:nonzero;"/>
                </g>
            </g>
        </g>
        <g transform="matrix(1,0,0,1,923.889,965.477)">
            <path d="M0,-286.206C-70.667,-286.206 -135.743,-247.99 -170.268,-186.352L-604.649,-186.352C-622.879,-186.352 -637.711,-171.519 -637.711,-153.289L-637.711,-33.062C-637.711,-14.832 -622.879,0 -604.649,0L637.351,0C655.582,0 670.414,-14.832 670.414,-33.062L670.414,-153.289C670.414,-171.519 655.582,-186.352 637.351,-186.352L170.269,-186.352C135.743,-247.99 70.668,-286.206 0,-286.206M0,-283.2C72.651,-283.2 135.874,-242.852 168.498,-183.346L637.351,-183.346C653.951,-183.346 667.408,-169.89 667.408,-153.289L667.408,-33.062C667.408,-16.463 653.951,-3.006 637.351,-3.006L-604.649,-3.006C-621.249,-3.006 -634.706,-16.463 -634.706,-33.062L-634.706,-153.289C-634.706,-169.89 -621.249,-183.346 -604.649,-183.346L-168.497,-183.346C-135.874,-242.852 -72.651,-283.2 0,-283.2" style="fill:rgb(83,71,65);fill-rule:nonzero;"/>
        </g>
        <g transform="matrix(1,0,0,1,319.24,-1233.64)">
            <g opacity="0.5">
                <g transform="matrix(1,0,0,1,1242,2015.77)">
                    <path d="M0,180.34L-138.69,180.34L-138.69,0L0,0C16.6,0 30.057,13.457 30.057,30.057L30.057,150.283C30.057,166.883 16.6,180.34 0,180.34" style="fill:rgb(115,99,87);fill-rule:nonzero;"/>
                </g>
            </g>
        </g>
        <g transform="matrix(1,0,0,1,319.24,-1233.64)">
            <g opacity="0.5">
                <g transform="matrix(1,0,0,1,0,2196.11)">
                    <path d="M0,-180.34L138.69,-180.34L138.69,0L0,0C-16.6,0 -30.057,-13.457 -30.057,-30.057L-30.057,-150.283C-30.057,-166.883 -16.6,-180.34 0,-180.34" style="fill:rgb(115,99,87);fill-rule:nonzero;"/>
                </g>
            </g>
        </g>
    </g>
</svg>
